<mxfile host="app.diagrams.net" agent="Mozilla/5.0 (Windows NT 10.0; Win64; x64) AppleWebKit/537.36 (KHTML, like Gecko) Chrome/129.0.0.0 Safari/537.36" version="24.7.17">
  <diagram name="Página-1" id="3gpvf9tZSXBW2fcwV7LH">
    <mxGraphModel dx="1351" dy="553" grid="1" gridSize="10" guides="1" tooltips="1" connect="1" arrows="1" fold="1" page="1" pageScale="1" pageWidth="827" pageHeight="1169" math="0" shadow="0">
      <root>
        <mxCell id="0" />
        <mxCell id="1" parent="0" />
        <mxCell id="AIqD9A08CyONzUD-k_RM-1" style="edgeStyle=orthogonalEdgeStyle;rounded=0;orthogonalLoop=1;jettySize=auto;html=1;" parent="1" target="AIqD9A08CyONzUD-k_RM-3" edge="1">
          <mxGeometry relative="1" as="geometry">
            <Array as="points">
              <mxPoint x="50" y="160" />
              <mxPoint x="50" y="160" />
            </Array>
            <mxPoint x="50" y="170" as="sourcePoint" />
          </mxGeometry>
        </mxCell>
        <mxCell id="AIqD9A08CyONzUD-k_RM-2" value="Sistema" style="shape=umlActor;verticalLabelPosition=bottom;verticalAlign=top;html=1;outlineConnect=0;" parent="1" vertex="1">
          <mxGeometry x="40" y="180" width="30" height="60" as="geometry" />
        </mxCell>
        <mxCell id="AIqD9A08CyONzUD-k_RM-3" value="Cadastrar" style="ellipse;whiteSpace=wrap;html=1;" parent="1" vertex="1">
          <mxGeometry x="30" y="10" width="120" height="80" as="geometry" />
        </mxCell>
        <mxCell id="AIqD9A08CyONzUD-k_RM-4" value="Logar" style="ellipse;whiteSpace=wrap;html=1;" parent="1" vertex="1">
          <mxGeometry x="430" y="610" width="120" height="80" as="geometry" />
        </mxCell>
        <mxCell id="AIqD9A08CyONzUD-k_RM-5" style="edgeStyle=orthogonalEdgeStyle;rounded=0;orthogonalLoop=1;jettySize=auto;html=1;entryX=0;entryY=0.5;entryDx=0;entryDy=0;" parent="1" edge="1" target="AIqD9A08CyONzUD-k_RM-10">
          <mxGeometry relative="1" as="geometry">
            <mxPoint x="70" y="170" as="targetPoint" />
            <Array as="points">
              <mxPoint x="70" y="180" />
              <mxPoint x="70" y="130" />
            </Array>
            <mxPoint x="70" y="170" as="sourcePoint" />
          </mxGeometry>
        </mxCell>
        <mxCell id="AIqD9A08CyONzUD-k_RM-6" style="edgeStyle=orthogonalEdgeStyle;rounded=0;orthogonalLoop=1;jettySize=auto;html=1;dashed=1;" parent="1" source="AIqD9A08CyONzUD-k_RM-10" target="AIqD9A08CyONzUD-k_RM-14" edge="1">
          <mxGeometry relative="1" as="geometry">
            <Array as="points">
              <mxPoint x="430" y="140" />
              <mxPoint x="430" y="140" />
            </Array>
          </mxGeometry>
        </mxCell>
        <mxCell id="AIqD9A08CyONzUD-k_RM-7" style="edgeStyle=orthogonalEdgeStyle;rounded=0;orthogonalLoop=1;jettySize=auto;html=1;dashed=1;" parent="1" source="AIqD9A08CyONzUD-k_RM-10" target="AIqD9A08CyONzUD-k_RM-16" edge="1">
          <mxGeometry relative="1" as="geometry">
            <Array as="points">
              <mxPoint x="310" y="180" />
              <mxPoint x="480" y="180" />
              <mxPoint x="480" y="280" />
            </Array>
          </mxGeometry>
        </mxCell>
        <mxCell id="AIqD9A08CyONzUD-k_RM-8" style="edgeStyle=orthogonalEdgeStyle;rounded=0;orthogonalLoop=1;jettySize=auto;html=1;dashed=1;" parent="1" source="AIqD9A08CyONzUD-k_RM-10" target="AIqD9A08CyONzUD-k_RM-23" edge="1">
          <mxGeometry relative="1" as="geometry">
            <Array as="points">
              <mxPoint x="290" y="220" />
              <mxPoint x="468" y="220" />
            </Array>
          </mxGeometry>
        </mxCell>
        <mxCell id="AIqD9A08CyONzUD-k_RM-9" style="edgeStyle=orthogonalEdgeStyle;rounded=0;orthogonalLoop=1;jettySize=auto;html=1;entryX=0;entryY=0.5;entryDx=0;entryDy=0;dashed=1;" parent="1" source="AIqD9A08CyONzUD-k_RM-10" target="AIqD9A08CyONzUD-k_RM-12" edge="1">
          <mxGeometry relative="1" as="geometry">
            <Array as="points">
              <mxPoint x="290" y="50" />
            </Array>
          </mxGeometry>
        </mxCell>
        <mxCell id="AIqD9A08CyONzUD-k_RM-10" value="RF04 - Possuir guia de benefícios e direitos" style="ellipse;whiteSpace=wrap;html=1;" parent="1" vertex="1">
          <mxGeometry x="260" y="90" width="120" height="80" as="geometry" />
        </mxCell>
        <mxCell id="AIqD9A08CyONzUD-k_RM-11" style="edgeStyle=orthogonalEdgeStyle;rounded=0;orthogonalLoop=1;jettySize=auto;html=1;" parent="1" source="AIqD9A08CyONzUD-k_RM-12" target="AIqD9A08CyONzUD-k_RM-37" edge="1">
          <mxGeometry relative="1" as="geometry" />
        </mxCell>
        <mxCell id="AIqD9A08CyONzUD-k_RM-12" value="RF002 - Possuir seção com detalhes sobre os direitos legais&amp;nbsp;" style="ellipse;whiteSpace=wrap;html=1;" parent="1" vertex="1">
          <mxGeometry x="355" y="10" width="150" height="80" as="geometry" />
        </mxCell>
        <mxCell id="AIqD9A08CyONzUD-k_RM-13" style="edgeStyle=orthogonalEdgeStyle;rounded=0;orthogonalLoop=1;jettySize=auto;html=1;" parent="1" source="AIqD9A08CyONzUD-k_RM-14" target="AIqD9A08CyONzUD-k_RM-37" edge="1">
          <mxGeometry relative="1" as="geometry" />
        </mxCell>
        <mxCell id="AIqD9A08CyONzUD-k_RM-14" value="RF003 - Possuir informações sobre benefícios, incluindo a Lei Brasileira de Inclusão e o Benefício de Prestação Continuada (BPC)" style="ellipse;whiteSpace=wrap;html=1;" parent="1" vertex="1">
          <mxGeometry x="460" y="80" width="265" height="130" as="geometry" />
        </mxCell>
        <mxCell id="AIqD9A08CyONzUD-k_RM-15" style="edgeStyle=orthogonalEdgeStyle;rounded=0;orthogonalLoop=1;jettySize=auto;html=1;" parent="1" source="AIqD9A08CyONzUD-k_RM-16" target="AIqD9A08CyONzUD-k_RM-37" edge="1">
          <mxGeometry relative="1" as="geometry">
            <Array as="points">
              <mxPoint x="615" y="220" />
              <mxPoint x="760" y="220" />
              <mxPoint x="760" y="150" />
            </Array>
          </mxGeometry>
        </mxCell>
        <mxCell id="AIqD9A08CyONzUD-k_RM-16" value="RF05 - Mostrar lista de documentos necessários para cada tipo de benefício" style="ellipse;whiteSpace=wrap;html=1;" parent="1" vertex="1">
          <mxGeometry x="530" y="230" width="170" height="100" as="geometry" />
        </mxCell>
        <mxCell id="AIqD9A08CyONzUD-k_RM-17" style="edgeStyle=orthogonalEdgeStyle;rounded=0;orthogonalLoop=1;jettySize=auto;html=1;entryX=0;entryY=0.5;entryDx=0;entryDy=0;" parent="1" target="AIqD9A08CyONzUD-k_RM-18" edge="1">
          <mxGeometry relative="1" as="geometry">
            <Array as="points">
              <mxPoint x="120" y="220" />
              <mxPoint x="120" y="290" />
            </Array>
            <mxPoint x="90" y="220" as="sourcePoint" />
            <mxPoint x="288" y="240" as="targetPoint" />
          </mxGeometry>
        </mxCell>
        <mxCell id="AIqD9A08CyONzUD-k_RM-18" value="RF010 - Possuir uma seção de FAQ e base de conhecimento com perguntas frequentes.&amp;nbsp;" style="ellipse;whiteSpace=wrap;html=1;" parent="1" vertex="1">
          <mxGeometry x="150" y="240" width="275" height="100" as="geometry" />
        </mxCell>
        <mxCell id="AIqD9A08CyONzUD-k_RM-19" style="edgeStyle=orthogonalEdgeStyle;rounded=0;orthogonalLoop=1;jettySize=auto;html=1;entryX=0;entryY=0.5;entryDx=0;entryDy=0;" parent="1" edge="1" target="AIqD9A08CyONzUD-k_RM-20">
          <mxGeometry relative="1" as="geometry">
            <mxPoint x="55" y="270" as="targetPoint" />
            <mxPoint x="50" y="270" as="sourcePoint" />
            <Array as="points">
              <mxPoint x="50" y="470" />
            </Array>
          </mxGeometry>
        </mxCell>
        <mxCell id="AIqD9A08CyONzUD-k_RM-20" value="RF011 - Permitir suporte para leitores de tela e opções de contraste para deficientes visuais" style="ellipse;whiteSpace=wrap;html=1;" parent="1" vertex="1">
          <mxGeometry x="110" y="420" width="240" height="100" as="geometry" />
        </mxCell>
        <mxCell id="AIqD9A08CyONzUD-k_RM-21" value="RF014 - Criar uma sessão de pergunta no fórum&amp;nbsp;" style="ellipse;whiteSpace=wrap;html=1;" parent="1" vertex="1">
          <mxGeometry x="250" y="690" width="310" height="120" as="geometry" />
        </mxCell>
        <mxCell id="AIqD9A08CyONzUD-k_RM-22" style="edgeStyle=orthogonalEdgeStyle;rounded=0;orthogonalLoop=1;jettySize=auto;html=1;" parent="1" source="AIqD9A08CyONzUD-k_RM-23" edge="1">
          <mxGeometry relative="1" as="geometry">
            <Array as="points">
              <mxPoint x="800" y="340" />
            </Array>
            <mxPoint x="800" y="190" as="targetPoint" />
          </mxGeometry>
        </mxCell>
        <mxCell id="AIqD9A08CyONzUD-k_RM-23" value="RF016 - Mostrar notícias relacionadas ao TEA." style="ellipse;whiteSpace=wrap;html=1;" parent="1" vertex="1">
          <mxGeometry x="402.5" y="320" width="130" height="90" as="geometry" />
        </mxCell>
        <mxCell id="AIqD9A08CyONzUD-k_RM-24" style="edgeStyle=orthogonalEdgeStyle;rounded=0;orthogonalLoop=1;jettySize=auto;html=1;" parent="1" source="AIqD9A08CyONzUD-k_RM-25" target="AIqD9A08CyONzUD-k_RM-36" edge="1">
          <mxGeometry relative="1" as="geometry">
            <Array as="points">
              <mxPoint x="680" y="539" />
              <mxPoint x="680" y="680" />
            </Array>
          </mxGeometry>
        </mxCell>
        <mxCell id="AIqD9A08CyONzUD-k_RM-25" value="RF017 - Mostrar informações do usuário por meio de um perfil" style="ellipse;whiteSpace=wrap;html=1;" parent="1" vertex="1">
          <mxGeometry x="460" y="494" width="185" height="90" as="geometry" />
        </mxCell>
        <mxCell id="AIqD9A08CyONzUD-k_RM-26" value="RF018 - Editar os dados" style="ellipse;whiteSpace=wrap;html=1;" parent="1" vertex="1">
          <mxGeometry x="610" y="830" width="160" height="70" as="geometry" />
        </mxCell>
        <mxCell id="AIqD9A08CyONzUD-k_RM-27" style="edgeStyle=orthogonalEdgeStyle;rounded=0;orthogonalLoop=1;jettySize=auto;html=1;" parent="1" source="AIqD9A08CyONzUD-k_RM-28" target="AIqD9A08CyONzUD-k_RM-4" edge="1">
          <mxGeometry relative="1" as="geometry" />
        </mxCell>
        <mxCell id="AIqD9A08CyONzUD-k_RM-28" value="RF019 - Manter logado" style="ellipse;whiteSpace=wrap;html=1;" parent="1" vertex="1">
          <mxGeometry x="142.5" y="550" width="175" height="90" as="geometry" />
        </mxCell>
        <mxCell id="AIqD9A08CyONzUD-k_RM-29" value="RF020 - Sair da sua conta no dispositivo" style="ellipse;whiteSpace=wrap;html=1;" parent="1" vertex="1">
          <mxGeometry x="400" y="840" width="150" height="90" as="geometry" />
        </mxCell>
        <mxCell id="AIqD9A08CyONzUD-k_RM-30" style="edgeStyle=orthogonalEdgeStyle;rounded=0;orthogonalLoop=1;jettySize=auto;html=1;" parent="1" source="AIqD9A08CyONzUD-k_RM-31" edge="1">
          <mxGeometry relative="1" as="geometry">
            <mxPoint x="740" y="660" as="targetPoint" />
          </mxGeometry>
        </mxCell>
        <mxCell id="AIqD9A08CyONzUD-k_RM-31" value="RF021 - Permitir voltar à interface anterior.&amp;nbsp;" style="ellipse;whiteSpace=wrap;html=1;" parent="1" vertex="1">
          <mxGeometry x="630" y="450" width="170" height="80" as="geometry" />
        </mxCell>
        <mxCell id="AIqD9A08CyONzUD-k_RM-32" style="edgeStyle=orthogonalEdgeStyle;rounded=0;orthogonalLoop=1;jettySize=auto;html=1;" parent="1" source="AIqD9A08CyONzUD-k_RM-36" target="AIqD9A08CyONzUD-k_RM-4" edge="1">
          <mxGeometry relative="1" as="geometry" />
        </mxCell>
        <mxCell id="AIqD9A08CyONzUD-k_RM-33" style="edgeStyle=orthogonalEdgeStyle;rounded=0;orthogonalLoop=1;jettySize=auto;html=1;" parent="1" target="AIqD9A08CyONzUD-k_RM-29" edge="1">
          <mxGeometry relative="1" as="geometry">
            <Array as="points">
              <mxPoint x="700" y="740" />
              <mxPoint x="700" y="760" />
              <mxPoint x="580" y="760" />
              <mxPoint x="580" y="825" />
            </Array>
            <mxPoint x="720" y="740" as="sourcePoint" />
          </mxGeometry>
        </mxCell>
        <mxCell id="AIqD9A08CyONzUD-k_RM-34" style="edgeStyle=orthogonalEdgeStyle;rounded=0;orthogonalLoop=1;jettySize=auto;html=1;" parent="1" target="AIqD9A08CyONzUD-k_RM-21" edge="1">
          <mxGeometry relative="1" as="geometry">
            <Array as="points">
              <mxPoint x="570" y="730" />
              <mxPoint x="570" y="730" />
            </Array>
            <mxPoint x="710" y="730" as="sourcePoint" />
          </mxGeometry>
        </mxCell>
        <mxCell id="AIqD9A08CyONzUD-k_RM-38" value="" style="edgeStyle=orthogonalEdgeStyle;rounded=0;orthogonalLoop=1;jettySize=auto;html=1;" parent="1" target="AIqD9A08CyONzUD-k_RM-26" edge="1">
          <mxGeometry relative="1" as="geometry">
            <mxPoint x="740" y="760" as="sourcePoint" />
          </mxGeometry>
        </mxCell>
        <mxCell id="AIqD9A08CyONzUD-k_RM-36" value="Ator" style="shape=umlActor;verticalLabelPosition=bottom;verticalAlign=top;html=1;outlineConnect=0;" parent="1" vertex="1">
          <mxGeometry x="725" y="670" width="30" height="60" as="geometry" />
        </mxCell>
        <mxCell id="AIqD9A08CyONzUD-k_RM-37" value="Aplicação" style="shape=umlActor;verticalLabelPosition=bottom;verticalAlign=top;html=1;outlineConnect=0;" parent="1" vertex="1">
          <mxGeometry x="780" y="100" width="30" height="60" as="geometry" />
        </mxCell>
      </root>
    </mxGraphModel>
  </diagram>
</mxfile>
